<?xml version="1.0" encoding="UTF-8" standalone="no"?>
<svg
   xmlns:dc="http://purl.org/dc/elements/1.1/"
   xmlns:cc="http://creativecommons.org/ns#"
   xmlns:rdf="http://www.w3.org/1999/02/22-rdf-syntax-ns#"
   xmlns:svg="http://www.w3.org/2000/svg"
   xmlns="http://www.w3.org/2000/svg"
   xmlns:sodipodi="http://sodipodi.sourceforge.net/DTD/sodipodi-0.dtd"
   xmlns:inkscape="http://www.inkscape.org/namespaces/inkscape"
   aria-hidden="true"
   focusable="false"
   data-prefix="fas"
   data-icon="eye"
   class="svg-inline--fa fa-eye fa-w-18"
   role="img"
   viewBox="0 0 576 512"
   version="1.1"
   id="svg4"
   sodipodi:docname="eye-solid-green.svg"
   inkscape:version="1.0.1 (3bc2e813f5, 2020-09-07)">
  <metadata
     id="metadata10">
    <rdf:RDF>
      <cc:Work
         rdf:about="">
        <dc:format>image/svg+xml</dc:format>
        <dc:type
           rdf:resource="http://purl.org/dc/dcmitype/StillImage" />
        <dc:title></dc:title>
      </cc:Work>
    </rdf:RDF>
  </metadata>
  <defs
     id="defs8" />
  <sodipodi:namedview
     pagecolor="#ffffff"
     bordercolor="#666666"
     borderopacity="1"
     objecttolerance="10"
     gridtolerance="10"
     guidetolerance="10"
     inkscape:pageopacity="0"
     inkscape:pageshadow="2"
     inkscape:window-width="1920"
     inkscape:window-height="1017"
     id="namedview6"
     showgrid="false"
     inkscape:zoom="0.58695387"
     inkscape:cx="3.5595718"
     inkscape:cy="172.12216"
     inkscape:window-x="-8"
     inkscape:window-y="-8"
     inkscape:window-maximized="1"
     inkscape:current-layer="svg4" />
  <path
     fill="currentColor"
     d="M572.52 241.4C518.29 135.59 410.93 64 288 64S57.68 135.64 3.48 241.41a32.35 32.35 0 0 0 0 29.19C57.71 376.41 165.07 448 288 448s230.32-71.64 284.52-177.41a32.35 32.35 0 0 0 0-29.19zM288 400a144 144 0 1 1 144-144 143.93 143.93 0 0 1-144 144zm0-240a95.31 95.31 0 0 0-25.31 3.79 47.85 47.85 0 0 1-66.9 66.9A95.78 95.78 0 1 0 288 160z"
     id="path2" />
  <path
     style="fill:#a0a0a0;stroke:none;stroke-width:0.602353"
     d="m 269.02588,447.15695 c -1.15953,-0.10917 -5.49647,-0.4887 -9.63764,-0.84341 -10.42237,-0.89272 -22.59407,-2.70786 -34.33412,-5.12019 C 133.9956,422.48281 54.297646,362.74531 8.2482899,278.68683 1.2841319,265.97446 0.73203381,264.30803 0.73203381,256 c 0,-8.1109 0.44746489,-9.52739 6.68324229,-21.15641 C 29.39532,193.85331 61.654191,156.27378 99.075054,128.06581 141.31087,96.228304 190.8893,75.290425 241.92,67.739768 c 19.99203,-2.958081 48.09723,-4.103505 66.94478,-2.728327 87.5397,6.387173 165.78683,46.953729 223.15816,115.694439 14.31286,17.14927 29.21602,39.57437 38.82992,58.42824 6.44922,12.64757 6.44088,21.01803 -0.0336,33.76083 -18.36673,36.1485 -48.44035,73.61629 -80.75341,100.60816 -51.73388,43.21455 -113.26457,68.30677 -180.04976,73.42432 -7.31689,0.56068 -35.77999,0.72005 -40.99019,0.22952 z m 30.11765,-47.46422 c 26.18091,-1.26317 55.58206,-12.67484 78.28741,-30.38621 24.4804,-19.09602 43.13454,-48.02778 50.5301,-78.37005 3.19856,-13.12293 3.97383,-19.93884 3.97383,-34.93647 0,-9.97798 -0.28205,-15.38014 -1.06931,-20.48 -4.91932,-31.86758 -18.77232,-59.4245 -41.03596,-81.63036 -29.4798,-29.40326 -69.20476,-44.33798 -111.11214,-41.77294 -47.21056,2.88964 -90.53693,29.32826 -114.60071,69.93165 -9.86989,16.65371 -15.93708,33.74448 -18.98231,53.47165 -1.49831,9.70609 -1.49315,31.31222 0.01,40.96 3.02364,19.40969 8.84369,36.10452 18.13975,52.03393 21.68444,37.15777 58.00041,62.32134 100.62192,69.72163 7.14086,1.23985 20.94215,2.25665 26.20235,1.93043 1.49082,-0.0925 5.55671,-0.30542 9.0353,-0.47326 z"
     id="path835" />
  <path
     style="fill:#0fb23a;fill-opacity:1;stroke-width:0.851856"
     d="m 274.73354,350.2322 c -30.19456,-4.74338 -57.07703,-23.84464 -70.68543,-50.22532 -7.78792,-15.09735 -10.92133,-27.96001 -10.88515,-44.68362 0.0184,-8.52097 1.72657,-21.92176 2.95024,-23.14543 0.15922,-0.15922 2.83433,1.06181 5.94468,2.71342 13.47337,7.15439 31.479,7.06343 45.19461,-0.22833 6.8133,-3.62222 16.82076,-14.04375 20.08404,-20.91504 7.04816,-14.8409 6.44593,-33.35762 -1.4918,-45.86775 l -2.48883,-3.92247 4.37314,-1.00944 c 9.75864,-2.25256 20.56658,-2.97403 29.65133,-1.97933 37.21827,4.07508 68.03977,28.15923 80.44142,62.8575 14.81202,41.44225 -1.00699,88.02656 -37.99348,111.88436 -8.91171,5.74841 -21.65553,11.106 -31.51866,13.25065 -7.64024,1.6613 -26.53744,2.37653 -33.57611,1.2708 z"
     id="path851" />
  <path
     style="fill:#0fb202;fill-opacity:1;stroke-width:0.851856"
     d="m 269.97614,348.94284 c -24.61788,-5.28225 -47.38603,-20.83949 -60.94769,-41.64491 -13.50147,-20.71307 -17.98393,-42.89233 -13.9122,-68.83762 0.49631,-3.16251 1.00543,-5.75003 1.13137,-5.75003 0.12595,0 3.06216,1.29846 6.52492,2.88545 13.9361,6.38697 28.83284,6.53491 42.39969,0.42105 7.15151,-3.2228 19.21207,-15.10456 22.53148,-22.19745 6.54536,-13.98607 6.3746,-31.52622 -0.43122,-44.29524 -1.46357,-2.74596 -2.48951,-5.16419 -2.27984,-5.37385 0.20966,-0.20966 4.00423,-1.01341 8.43237,-1.78612 16.09264,-2.80813 35.47335,-0.50479 51.24601,6.09044 51.47767,21.52503 73.16701,83.05517 46.6266,132.2743 -11.78214,21.84996 -30.49085,37.25732 -55.37772,45.60574 -11.58346,3.88572 -34.04678,5.16097 -45.94377,2.60824 z"
     id="path853" />
  <path
     style="fill:#099002;fill-opacity:1;stroke-width:0.851856"
     d="m 276.36506,349.41461 c -18.30294,-2.04744 -38.04609,-11.63743 -52.7887,-25.64147 -18.95514,-18.00553 -29.41537,-41.89753 -29.41537,-67.18704 0,-7.16298 1.40328,-22.04827 2.15718,-22.88224 0.14131,-0.15632 3.64293,1.06857 7.78139,2.72198 16.13322,6.44558 33.17147,5.36248 45.64828,-2.90182 5.4825,-3.63145 15.5197,-14.46522 18.07677,-19.51136 6.30522,-12.44275 6.30012,-30.39482 -0.0126,-44.21727 -1.1461,-2.50953 -1.89661,-4.86569 -1.66779,-5.23591 1.64144,-2.65592 27.65324,-3.5095 39.30044,-1.28965 41.48417,7.90651 71.56244,40.68005 76.28117,83.11661 4.80731,43.23328 -23.12337,85.89628 -64.89765,99.12854 -10.84872,3.43641 -28.9818,5.18398 -40.46315,3.89963 z"
     id="path855" />
  <path
     style="fill:#099002;fill-opacity:1;stroke-width:0.851856"
     d="m 270.07238,348.09871 c -18.37163,-3.98568 -35.38684,-13.54015 -48.68965,-27.34049 -20.3457,-21.10664 -28.65745,-44.6252 -26.29824,-74.41233 0.5007,-6.32178 1.07175,-11.65553 1.269,-11.85278 0.19725,-0.19725 3.90548,0.85393 8.24051,2.33594 17.90447,6.12101 33.29604,5.03673 45.24753,-3.18751 5.78054,-3.97779 16.27274,-15.56466 18.64489,-20.59015 4.94867,-10.4839 5.42606,-27.33245 1.1084,-39.11915 -3.14644,-8.58942 -3.15022,-9.47452 -0.0446,-10.43223 4.59409,-1.41673 30.76275,-1.01264 38.33351,0.59195 13.82817,2.9308 28.44278,9.98084 39.89524,19.24533 32.68512,26.44068 43.16809,74.02807 24.84142,112.76748 -9.29075,19.63903 -28.96174,38.40893 -48.64327,46.41502 -15.27246,6.21256 -39.44996,8.71483 -53.90473,5.57892 z"
     id="path857" />
  <path
     style="fill:#099c03;fill-opacity:1;stroke-width:0.851856"
     d="m 274.78254,348.98639 c -7.88044,-1.08696 -18.79385,-4.66365 -27.23581,-8.92607 -27.44612,-13.8578 -46.56163,-38.9113 -51.58829,-67.61352 -1.73615,-9.91342 -1.35025,-36.06336 0.56039,-37.974 0.2473,-0.24729 3.55118,0.68231 7.34198,2.06578 18.66071,6.81031 36.0194,5.05928 48.35392,-4.87762 6.11096,-4.92309 14.134,-14.30521 16.45446,-19.24179 2.76923,-5.89127 3.81179,-13.27299 3.35478,-23.7531 -0.35162,-8.06329 -0.84944,-10.74221 -3.11188,-16.74605 -1.48131,-3.93095 -2.55386,-7.28661 -2.38346,-7.45702 1.33737,-1.33737 12.34699,-2.13387 24.43917,-1.76808 15.65342,0.47352 22.55811,1.87047 34.26758,6.93296 31.9279,13.80377 52.2431,41.92716 56.20013,77.80076 4.55631,41.30669 -23.26871,84.14645 -63.16011,97.24213 -11.46785,3.7647 -32.41671,5.84337 -43.49286,4.31562 z"
     id="path871" />
  <path
     style="fill:#099c03;fill-opacity:1;stroke-width:0.851856"
     d="m 264.56028,446.39943 c -14.64762,-1.49228 -27.0808,-3.27205 -37.48557,-5.36595 C 139.59334,423.42834 62.739691,368.56518 15.461224,289.96994 11.850786,283.96798 7.1958082,275.56243 5.1168281,271.29094 1.5328515,263.92727 1.3379128,263.14595 1.3570837,256.22199 c 0.024071,-8.69374 1.1613324,-11.83756 9.7292543,-26.89529 13.98328,-24.57497 30.793116,-46.75167 51.581112,-68.04937 34.387039,-35.2302 72.46245,-60.16161 117.7237,-77.084336 68.8642,-25.747632 146.91314,-25.630004 216.31721,0.326014 46.77555,17.493312 86.30096,44.231982 122.76276,83.048162 16.96845,18.06411 32.98133,39.84688 45.40046,61.75953 9.98627,17.62003 11.73474,23.70304 9.41539,32.75639 -2.71661,10.60392 -16.60072,34.49082 -31.83918,54.77765 -55.88463,74.39868 -134.1005,119.2556 -224.64653,128.83512 -10.75288,1.13762 -44.59122,1.58479 -53.24098,0.70357 z m 39.84504,-47.10597 c 0.12857,-0.31473 1.28717,-0.41761 2.57469,-0.22865 1.28752,0.18897 6.90292,-0.6796 12.47869,-1.93014 59.39764,-13.32181 104.7105,-62.95664 111.97897,-122.65961 1.73394,-14.24251 0.66248,-43.75574 -1.61788,-44.5645 -0.41562,-0.1474 -0.56424,-0.76683 -0.33028,-1.37652 1.07738,-2.80759 -6.23499,-25.59749 -11.70466,-36.47899 C 409.61523,175.80217 401.14372,164.4427 387.29816,151.17534 344.02678,109.711 279.52588,99.638869 224.94899,125.82372 c -40.75023,19.5511 -69.29876,56.5241 -78.9203,102.20912 -2.23382,10.60664 -3.04029,32.99452 -1.62603,45.13941 5.99363,51.47028 40.46544,96.95675 88.23914,116.43388 4.111,1.67604 8.37414,3.09899 9.47365,3.16211 1.09949,0.0631 1.99936,0.36026 1.99968,0.66033 0.002,1.55279 19.92934,5.62447 32.55609,6.65198 8.49061,0.69092 27.34895,0.15573 27.7341,-0.78709 z"
     id="path873" />
</svg>
