<svg width="100" height="100" xmlns="http://www.w3.org/2000/svg">
 <g id="Layer_1">
  <title>Layer 1</title>
  <g id="svg_21">
   <defs transform="translate(97.5, 213.75) translate(60, 38.75) translate(53.75, 12.5) translate(0, 17.5) translate(7.5, 380) translate(48.75, 423.75) translate(0, 467.5) translate(67.5, 435) translate(50, 448.75) translate(81.25, 458.75) translate(110, 525) translate(56.25, 537.5) translate(-46.25, 441.25) translate(97.5, 400) translate(72.5, 593.75) translate(102.5, 587.5) translate(87.5, 538.75) translate(48.75, 630) translate(95, 582.5) translate(22.5, 140) translate(86.25, 432.5) translate(121.25, 555) translate(76.25, 370) translate(247.5, 181.25) translate(0, -1.47059) translate(0, -1.47059) translate(0, 2.94118) translate(-3) translate(-2.94118, 1.47059) translate(2.94118, 2.94118) translate(-1) translate(-19, -97) translate(22, 86) translate(-10076) translate(0, -9201) translate(-9495, -9133) scale(1, 0.979622) translate(9495, 9133) translate(-9495, -9322.98) scale(1, 0.989382) translate(9495, 9322.98) translate(-9495, -9423.03) scale(1, 0.965999) translate(9495, 9423.03) translate(-9495, -9754.7) scale(1, 0.982599) translate(9495, 9754.7) translate(-9495, -9927.45) scale(1, 0.974382) translate(9495, 9927.45) translate(-9495, -10188.5) scale(1, 0.953772) translate(9495, 10188.5) translate(-9495, -10682.3) scale(1, 0.965679) translate(9495, 10682.3) translate(-9495, -11061.9) scale(1, 0.968146) translate(9495, 11061.9) translate(-9495, -11425.9) scale(1, 0.962704) translate(9495, 11425.9) translate(-9498, -11862.8) scale(1, 1.00965) translate(9498, 11862.8) translate(-9498, -11749.4) scale(1, 0.947578) translate(9498, 11749.4) translate(-9498, -12399.4) scale(1, 0.99991) translate(9498, 12399.4) translate(-9498, -12400.5) scale(1, 0.970534) translate(9498, 12400.5) translate(-9498, -12777) scale(1, 0.958777) translate(9498, 12777) translate(-9498, -13326.3) scale(1, 0.972969) translate(9498, 13326.3) translate(-9498, -13696.6) scale(1, 0.943568) translate(9498, 13696.6) translate(-9498, -14515.7) scale(1, 0.94842) translate(9498, 14515.7) translate(-9498, -15305.2) scale(1, 0.927153) translate(9498, 15305.2) translate(-9250.5, -16179.9) scale(1, 0.932105) translate(9250.5, 16179.9) translate(-9250.5, -17358.5) scale(1, 0.939643) translate(9250.5, 17358.5) translate(-8065.5, 18844.3) scale(1, 0.925494) translate(8065.5, -18844.3) translate(-8065.5, 20400.4) scale(1, 0.924528) translate(8065.5, -20400.4) translate(-8065.5, 22065.8) scale(1, 0.922688) translate(8065.5, -22065.8) translate(-8065.5, 23914.7) scale(1, 0.914823) translate(8065.5, -23914.7) translate(-7951.75, 7443.82) scale(1, 0.929078) translate(7951.75, -7443.82) translate(-7951.75, 8012.05) scale(1, 0.919787) translate(7951.75, -8012.05) translate(-7951.75, 8710.77) scale(1, 0.885275) translate(7951.75, -8710.77) translate(-7951.75, 9839.62) scale(1, 0.87893) translate(7951.75, -9839.62) translate(-7951.75, 30039) scale(1, 0.866531) translate(7951.75, -30039) translate(-7951.75, 34665.8) scale(1, 0.853872) translate(7951.75, -34665.8) translate(-7951.75, 40598.4) scale(1, 0.82501) translate(7951.75, -40598.4) translate(-7951.75, 49209.5) scale(1, 0.730896) translate(7951.75, -49209.5) translate(-7951.75, 67327.7) scale(1, 0.6772) translate(7951.75, -67327.7) translate(-7951.75, 99420.8) scale(1, 1.44835) translate(7951.75, -99420.8)" class="ClipPathGroup">
    <clipPath clipPathUnits="userSpaceOnUse" id="svg_3">
     <rect height="29700" width="21000" y="203.66176" x="-8433.25" id="svg_22"/>
    </clipPath>
    <clipPath clipPathUnits="userSpaceOnUse" id="svg_20">
     <rect height="29641" width="20958" y="29" x="21" id="svg_23"/>
    </clipPath>
   </defs>
   <defs transform="translate(97.5, 213.75) translate(60, 38.75) translate(53.75, 12.5) translate(0, 17.5) translate(7.5, 380) translate(48.75, 423.75) translate(0, 467.5) translate(67.5, 435) translate(50, 448.75) translate(81.25, 458.75) translate(110, 525) translate(56.25, 537.5) translate(-46.25, 441.25) translate(97.5, 400) translate(72.5, 593.75) translate(102.5, 587.5) translate(87.5, 538.75) translate(48.75, 630) translate(95, 582.5) translate(22.5, 140) translate(86.25, 432.5) translate(121.25, 555) translate(76.25, 370) translate(247.5, 181.25) translate(0, -1.47059) translate(0, -1.47059) translate(0, 2.94118) translate(-3) translate(-2.94118, 1.47059) translate(2.94118, 2.94118) translate(-1) translate(-19, -97) translate(22, 86) translate(-10076) translate(0, -9201) translate(-9495, -9133) scale(1, 0.979622) translate(9495, 9133) translate(-9495, -9322.98) scale(1, 0.989382) translate(9495, 9322.98) translate(-9495, -9423.03) scale(1, 0.965999) translate(9495, 9423.03) translate(-9495, -9754.7) scale(1, 0.982599) translate(9495, 9754.7) translate(-9495, -9927.45) scale(1, 0.974382) translate(9495, 9927.45) translate(-9495, -10188.5) scale(1, 0.953772) translate(9495, 10188.5) translate(-9495, -10682.3) scale(1, 0.965679) translate(9495, 10682.3) translate(-9495, -11061.9) scale(1, 0.968146) translate(9495, 11061.9) translate(-9495, -11425.9) scale(1, 0.962704) translate(9495, 11425.9) translate(-9498, -11862.8) scale(1, 1.00965) translate(9498, 11862.8) translate(-9498, -11749.4) scale(1, 0.947578) translate(9498, 11749.4) translate(-9498, -12399.4) scale(1, 0.99991) translate(9498, 12399.4) translate(-9498, -12400.5) scale(1, 0.970534) translate(9498, 12400.5) translate(-9498, -12777) scale(1, 0.958777) translate(9498, 12777) translate(-9498, -13326.3) scale(1, 0.972969) translate(9498, 13326.3) translate(-9498, -13696.6) scale(1, 0.943568) translate(9498, 13696.6) translate(-9498, -14515.7) scale(1, 0.94842) translate(9498, 14515.7) translate(-9498, -15305.2) scale(1, 0.927153) translate(9498, 15305.2) translate(-9250.5, -16179.9) scale(1, 0.932105) translate(9250.5, 16179.9) translate(-9250.5, -17358.5) scale(1, 0.939643) translate(9250.5, 17358.5) translate(-8065.5, 18844.3) scale(1, 0.925494) translate(8065.5, -18844.3) translate(-8065.5, 20400.4) scale(1, 0.924528) translate(8065.5, -20400.4) translate(-8065.5, 22065.8) scale(1, 0.922688) translate(8065.5, -22065.8) translate(-8065.5, 23914.7) scale(1, 0.914823) translate(8065.5, -23914.7) translate(-7951.75, 7443.82) scale(1, 0.929078) translate(7951.75, -7443.82) translate(-7951.75, 8012.05) scale(1, 0.919787) translate(7951.75, -8012.05) translate(-7951.75, 8710.77) scale(1, 0.885275) translate(7951.75, -8710.77) translate(-7951.75, 9839.62) scale(1, 0.87893) translate(7951.75, -9839.62) translate(-7951.75, 30039) scale(1, 0.866531) translate(7951.75, -30039) translate(-7951.75, 34665.8) scale(1, 0.853872) translate(7951.75, -34665.8) translate(-7951.75, 40598.4) scale(1, 0.82501) translate(7951.75, -40598.4) translate(-7951.75, 49209.5) scale(1, 0.730896) translate(7951.75, -49209.5) translate(-7951.75, 67327.7) scale(1, 0.6772) translate(7951.75, -67327.7) translate(-7951.75, 99420.8) scale(1, 1.44835) translate(7951.75, -99420.8)" class="TextShapeIndex">
    <g id="svg_24"/>
   </defs>
   <defs transform="translate(97.5, 213.75) translate(60, 38.75) translate(53.75, 12.5) translate(0, 17.5) translate(7.5, 380) translate(48.75, 423.75) translate(0, 467.5) translate(67.5, 435) translate(50, 448.75) translate(81.25, 458.75) translate(110, 525) translate(56.25, 537.5) translate(-46.25, 441.25) translate(97.5, 400) translate(72.5, 593.75) translate(102.5, 587.5) translate(87.5, 538.75) translate(48.75, 630) translate(95, 582.5) translate(22.5, 140) translate(86.25, 432.5) translate(121.25, 555) translate(76.25, 370) translate(247.5, 181.25) translate(0, -1.47059) translate(0, -1.47059) translate(0, 2.94118) translate(-3) translate(-2.94118, 1.47059) translate(2.94118, 2.94118) translate(-1) translate(-19, -97) translate(22, 86) translate(-10076) translate(0, -9201) translate(-9495, -9133) scale(1, 0.979622) translate(9495, 9133) translate(-9495, -9322.98) scale(1, 0.989382) translate(9495, 9322.98) translate(-9495, -9423.03) scale(1, 0.965999) translate(9495, 9423.03) translate(-9495, -9754.7) scale(1, 0.982599) translate(9495, 9754.7) translate(-9495, -9927.45) scale(1, 0.974382) translate(9495, 9927.45) translate(-9495, -10188.5) scale(1, 0.953772) translate(9495, 10188.5) translate(-9495, -10682.3) scale(1, 0.965679) translate(9495, 10682.3) translate(-9495, -11061.9) scale(1, 0.968146) translate(9495, 11061.9) translate(-9495, -11425.9) scale(1, 0.962704) translate(9495, 11425.9) translate(-9498, -11862.8) scale(1, 1.00965) translate(9498, 11862.8) translate(-9498, -11749.4) scale(1, 0.947578) translate(9498, 11749.4) translate(-9498, -12399.4) scale(1, 0.99991) translate(9498, 12399.4) translate(-9498, -12400.5) scale(1, 0.970534) translate(9498, 12400.5) translate(-9498, -12777) scale(1, 0.958777) translate(9498, 12777) translate(-9498, -13326.3) scale(1, 0.972969) translate(9498, 13326.3) translate(-9498, -13696.6) scale(1, 0.943568) translate(9498, 13696.6) translate(-9498, -14515.7) scale(1, 0.94842) translate(9498, 14515.7) translate(-9498, -15305.2) scale(1, 0.927153) translate(9498, 15305.2) translate(-9250.5, -16179.9) scale(1, 0.932105) translate(9250.5, 16179.9) translate(-9250.5, -17358.5) scale(1, 0.939643) translate(9250.5, 17358.5) translate(-8065.5, 18844.3) scale(1, 0.925494) translate(8065.5, -18844.3) translate(-8065.5, 20400.4) scale(1, 0.924528) translate(8065.5, -20400.4) translate(-8065.5, 22065.8) scale(1, 0.922688) translate(8065.5, -22065.8) translate(-8065.5, 23914.7) scale(1, 0.914823) translate(8065.5, -23914.7) translate(-7951.75, 7443.82) scale(1, 0.929078) translate(7951.75, -7443.82) translate(-7951.75, 8012.05) scale(1, 0.919787) translate(7951.75, -8012.05) translate(-7951.75, 8710.77) scale(1, 0.885275) translate(7951.75, -8710.77) translate(-7951.75, 9839.62) scale(1, 0.87893) translate(7951.75, -9839.62) translate(-7951.75, 30039) scale(1, 0.866531) translate(7951.75, -30039) translate(-7951.75, 34665.8) scale(1, 0.853872) translate(7951.75, -34665.8) translate(-7951.75, 40598.4) scale(1, 0.82501) translate(7951.75, -40598.4) translate(-7951.75, 49209.5) scale(1, 0.730896) translate(7951.75, -49209.5) translate(-7951.75, 67327.7) scale(1, 0.6772) translate(7951.75, -67327.7) translate(-7951.75, 99420.8) scale(1, 1.44835) translate(7951.75, -99420.8)" class="EmbeddedBulletChars">
    <g transform="scale(0.00048828125,-0.00048828125)" id="svg_19">
     <path d="m580,1141l583,-570l-583,-571l-584,571l584,570z" id="svg_25"/>
    </g>
    <g transform="scale(0.00048828125,-0.00048828125)" id="svg_18">
     <path d="m8,1128l1129,0l0,-1128l-1129,0l0,1128z" id="svg_26"/>
    </g>
    <g transform="scale(0.00048828125,-0.00048828125)" id="svg_17">
     <path d="m174,0l428,739l-428,742l1282,-742l-1282,-739zm1184,739l-1049,607l350,-607l699,0z" id="svg_27"/>
    </g>
    <g transform="scale(0.00048828125,-0.00048828125)" id="svg_16">
     <path d="m2015,739l-739,-739l-559,0l543,543l-1086,0l0,393l1086,0l-543,545l557,0l741,-742z" id="svg_28"/>
    </g>
    <g transform="scale(0.00048828125,-0.00048828125)" id="svg_15">
     <path d="m0,-2c-7,16 -16,29 -25,39l381,530c-94,256 -141,385 -141,387c0,25 13,38 40,38c9,0 21,-2 34,-5c21,4 42,12 65,25l27,-13l111,-251l280,301l64,-25l24,25c21,-10 41,-24 62,-43c-36,-69 -87,-143 -152,-222c-1,-1 -60,-68 -176,-200l180,-361c0,-27 -21,-55 -63,-84l16,-20c-10,-29 -28,-43 -55,-43c-31,0 -102,102 -215,305l-293,-457c-22,-34 -53,-51 -92,-51c-42,0 -63,17 -64,51c-7,9 -10,24 -10,44c0,9 1,19 2,30z" id="svg_29"/>
    </g>
    <g transform="scale(0.00048828125,-0.00048828125)" id="svg_14">
     <path d="m285,-33c-103,0 -174,63 -211,189c-22,72 -33,177 -33,315c0,78 14,145 41,201c34,71 87,106 158,106c53,0 88,-31 106,-94l23,-176c8,-64 28,-97 59,-98l735,706c11,11 33,17 66,17c42,0 63,-15 63,-46l0,-122c0,-36 -10,-64 -30,-84l-820,-834c-52,-53 -104,-80 -157,-80z" id="svg_30"/>
    </g>
    <g transform="scale(0.00048828125,-0.00048828125)" id="svg_13">
     <path d="m813,0c-181,0 -324,54 -430,161c-107,107 -160,250 -160,431c0,181 53,324 160,431c106,107 249,161 430,161c179,0 323,-54 432,-161c108,-107 162,-251 162,-431c0,-180 -54,-324 -162,-431c-109,-107 -253,-161 -432,-161z" id="svg_31"/>
    </g>
    <g transform="scale(0.00048828125,-0.00048828125)" id="svg_12">
     <path d="m346,457c-73,0 -137,26 -191,78c-54,51 -81,114 -81,188c0,73 27,136 81,188c54,52 118,78 191,78c73,0 134,-26 185,-79c51,-51 77,-114 77,-187c0,-75 -25,-137 -76,-188c-50,-52 -112,-78 -186,-78z" id="svg_32"/>
    </g>
    <g transform="scale(0.00048828125,-0.00048828125)" id="svg_11">
     <path d="m-4,459l1139,0l0,147l-1139,0l0,-147z" id="svg_33"/>
    </g>
    <g transform="scale(0.00048828125,-0.00048828125)" id="svg_10">
     <path d="m173,740c0,163 58,303 173,419c116,115 255,173 419,173c163,0 302,-58 418,-173c116,-116 174,-256 174,-419c0,-163 -58,-303 -174,-418c-116,-116 -255,-174 -418,-174c-164,0 -303,58 -419,174c-115,115 -173,255 -173,418z" id="svg_34"/>
    </g>
   </defs>
   <g id="svg_35">
    <g class="Master_Slide" id="svg_7">
     <g class="Background" id="svg_9"/>
     <g class="BackgroundObjects" id="svg_8"/>
    </g>
   </g>
   <g class="SlideGroup" id="svg_36">
    <g id="svg_37">
     <g id="svg_1">
      <g clip-path="url(#svg_3)" class="Slide" id="svg_2">
       <g class="Page" id="svg_38">
        <g class="Group" id="svg_39">
         <g class="com.sun.star.drawing.CustomShape" id="svg_40">
          <g id="svg_6">
           <rect height="1918.04225" width="19594" y="5282.66192" x="-7854.25" fill="none" class="BoundingBox" id="svg_41"/>
           <path d="m11067.75,6241.58126c0,156.44401 -422,310.03803 -1223,445.41249c-801,135.37445 -1952,247.84721 -3340,326.01833c-1387,78.17111 -2961,119.29238 -4562,119.29238c-1602,0 -3176,-41.12126 -4563,-119.29238c-1388,-78.17111 -2539,-190.64387 -3340,-326.01833c-801,-135.37445 -1223,-288.96848 -1223,-445.3107c0,-156.44401 422,-310.03803 1223,-445.41249c801,-135.37445 1952,-247.84721 3340,-326.01833c1387,-78.17111 2961,-119.29238 4562,-119.29238c1602,0 3176,41.12126 4563,119.29238c1388,78.17111 2539,190.64387 3340,326.01833c801,135.37445 1223,288.96848 1223,445.3107l0,0z" stroke-linejoin="round" stroke-width="1341" stroke="rgb(0,0,0)" fill="none" id="svg_42"/>
          </g>
         </g>
         <g class="Graphic" id="svg_43">
          <g id="svg_4">
           <rect height="1378.8855" width="11853" y="5554.53046" x="-3933.25" fill="none" class="BoundingBox" id="svg_44"/>
           <defs transform="translate(97.5, 213.75) translate(60, 38.75) translate(53.75, 12.5) translate(0, 17.5) translate(7.5, 380) translate(48.75, 423.75) translate(0, 467.5) translate(67.5, 435) translate(50, 448.75) translate(81.25, 458.75) translate(110, 525) translate(56.25, 537.5) translate(-46.25, 441.25) translate(97.5, 400) translate(72.5, 593.75) translate(102.5, 587.5) translate(87.5, 538.75) translate(48.75, 630) translate(95, 582.5) translate(22.5, 140) translate(86.25, 432.5) translate(121.25, 555) translate(76.25, 370) translate(247.5, 181.25) translate(0, -1.47059) translate(0, -1.47059) translate(0, 2.94118) translate(-3) translate(-2.94118, 1.47059) translate(2.94118, 2.94118) translate(-1) translate(-19, -97) translate(22, 86) translate(-10076) translate(0, -9201) translate(-9495, -9133) scale(1, 0.979622) translate(9495, 9133) translate(-9495, -9322.98) scale(1, 0.989382) translate(9495, 9322.98) translate(-9495, -9423.03) scale(1, 0.965999) translate(9495, 9423.03) translate(-9495, -9754.7) scale(1, 0.982599) translate(9495, 9754.7) translate(-9495, -9927.45) scale(1, 0.974382) translate(9495, 9927.45) translate(-9495, -10188.5) scale(1, 0.953772) translate(9495, 10188.5) translate(-9495, -10682.3) scale(1, 0.965679) translate(9495, 10682.3) translate(-9495, -11061.9) scale(1, 0.968146) translate(9495, 11061.9) translate(-9495, -11425.9) scale(1, 0.962704) translate(9495, 11425.9) translate(-9498, -11862.8) scale(1, 1.00965) translate(9498, 11862.8) translate(-9498, -11749.4) scale(1, 0.947578) translate(9498, 11749.4) translate(-9498, -12399.4) scale(1, 0.99991) translate(9498, 12399.4) translate(-9498, -12400.5) scale(1, 0.970534) translate(9498, 12400.5) translate(-9498, -12777) scale(1, 0.958777) translate(9498, 12777) translate(-9498, -13326.3) scale(1, 0.972969) translate(9498, 13326.3) translate(-9498, -13696.6) scale(1, 0.943568) translate(9498, 13696.6) translate(-9498, -14515.7) scale(1, 0.94842) translate(9498, 14515.7) translate(-9498, -15305.2) scale(1, 0.927153) translate(9498, 15305.2) translate(-9250.5, -16179.9) scale(1, 0.932105) translate(9250.5, 16179.9) translate(-9250.5, -17358.5) scale(1, 0.939643) translate(9250.5, 17358.5) translate(-8065.5, 18844.3) scale(1, 0.925494) translate(8065.5, -18844.3) translate(-8065.5, 20400.4) scale(1, 0.924528) translate(8065.5, -20400.4) translate(-8065.5, 22065.8) scale(1, 0.922688) translate(8065.5, -22065.8) translate(-8065.5, 23914.7) scale(1, 0.914823) translate(8065.5, -23914.7) translate(-7951.75, 7443.82) scale(1, 0.929078) translate(7951.75, -7443.82) translate(-7951.75, 8012.05) scale(1, 0.919787) translate(7951.75, -8012.05) translate(-7951.75, 8710.77) scale(1, 0.885275) translate(7951.75, -8710.77) translate(-7951.75, 9839.62) scale(1, 0.87893) translate(7951.75, -9839.62) translate(-7951.75, 30039) scale(1, 0.866531) translate(7951.75, -30039) translate(-7951.75, 34665.8) scale(1, 0.853872) translate(7951.75, -34665.8) translate(-7951.75, 40598.4) scale(1, 0.82501) translate(7951.75, -40598.4) translate(-7951.75, 49209.5) scale(1, 0.730896) translate(7951.75, -49209.5) translate(-7951.75, 67327.7) scale(1, 0.6772) translate(7951.75, -67327.7) translate(-7951.75, 99420.8) scale(1, 1.44835) translate(7951.75, -99420.8)">
            <clipPath clipPathUnits="userSpaceOnUse" id="svg_5">
             <path d="m-3933.25,2953.66176l11852,0l0,13546l-11852,0l0,-13546z" id="svg_45"/>
            </clipPath>
           </defs>
           <g clip-path="url(#svg_5)" id="svg_46">
            <path d="m7918.75,6480.87851l0,301.58985c0,0.10179 0,0.10179 0,0.20357c0,11.29817 -29,22.39277 -85,32.26594c-55,9.77139 -135,17.91421 -232,23.61419c-96,5.59819 -205,8.54997 -316,8.54997c-1,0 -1,0 -2,0l-2963,0c-566,0 -849,-69.72293 -450,-110.33527l958,-97.51032l-2836,-288.66312l-2837,288.96848l959,97.20496c399,40.61234 116,110.33527 -450,110.33527l-2963,0c-1,0 -1,0 -2,0c-111,0 -220,-2.95177 -316,-8.54997c-97,-5.69998 -177,-13.8428 -232,-23.61419c-56,-9.87317 -85,-20.96777 -85,-32.26594c0,-0.10179 0,-0.10179 0,-0.20357l0,-301.58985c0,-57.61048 685,-86.41572 1085,-45.80339l957,97.51032l2838,-288.66312l-2838,-288.96848l-957,97.81568c-400,40.61234 -1085,11.8071 -1085,-45.80339l0,-301.58985c0,-0.10179 0,-0.10179 0,-0.20357c0,-11.29817 29,-22.39277 85,-32.26594c55,-9.77139 135,-17.91421 232,-23.61419c96,-5.59819 205,-8.54997 316,-8.54997c1,0 1,0 2,0l2963,0c566,0 849,69.72293 450,110.33527l-958,97.51032l2836,288.66312l2837,-288.96848l-959,-97.20496c-399,-40.61234 -116,-110.33527 450,-110.33527l2963,0c1,0 1,0 2,0c111,0 220,2.95177 316,8.54997c97,5.69998 177,13.8428 232,23.61419c56,9.87317 85,20.96777 85,32.26594c0,0.10179 0,0.10179 0,0.20357l0,301.58985c0,57.61048 -685,86.41572 -1085,45.80339l-957,-97.51032l-2838,288.66312l2838,288.96848l957,-97.51032c400,-40.91769 1085,-12.11245 1085,45.49803z" fill="rgb(0,0,0)" id="svg_47"/>
           </g>
          </g>
         </g>
        </g>
       </g>
      </g>
     </g>
    </g>
   </g>
  </g>
  <text transform="rotate(45, 52.2, 48.4445)" xml:space="preserve" text-anchor="start" font-family="'Cabin'" font-size="35" id="svg_48" y="60.88889" x="-8.66663" stroke-width="0" stroke="#000" fill="#000000">GeoJson</text>
 </g>
</svg>