<?xml version="1.0" encoding="UTF-8" standalone="no"?>
<svg
   xmlns:dc="http://purl.org/dc/elements/1.1/"
   xmlns:cc="http://creativecommons.org/ns#"
   xmlns:rdf="http://www.w3.org/1999/02/22-rdf-syntax-ns#"
   xmlns:svg="http://www.w3.org/2000/svg"
   xmlns="http://www.w3.org/2000/svg"
   xmlns:sodipodi="http://sodipodi.sourceforge.net/DTD/sodipodi-0.dtd"
   xmlns:inkscape="http://www.inkscape.org/namespaces/inkscape"
   aria-hidden="true"
   focusable="false"
   data-prefix="fas"
   data-icon="eye"
   class="svg-inline--fa fa-eye fa-w-18"
   role="img"
   viewBox="0 0 576 512"
   version="1.1"
   id="svg4"
   sodipodi:docname="eye-solid-red.svg"
   inkscape:version="1.0.1 (3bc2e813f5, 2020-09-07)">
  <metadata
     id="metadata10">
    <rdf:RDF>
      <cc:Work
         rdf:about="">
        <dc:format>image/svg+xml</dc:format>
        <dc:type
           rdf:resource="http://purl.org/dc/dcmitype/StillImage" />
        <dc:title></dc:title>
      </cc:Work>
    </rdf:RDF>
  </metadata>
  <defs
     id="defs8" />
  <sodipodi:namedview
     pagecolor="#ffffff"
     bordercolor="#666666"
     borderopacity="1"
     objecttolerance="10"
     gridtolerance="10"
     guidetolerance="10"
     inkscape:pageopacity="0"
     inkscape:pageshadow="2"
     inkscape:window-width="1920"
     inkscape:window-height="1017"
     id="namedview6"
     showgrid="false"
     inkscape:snap-page="false"
     inkscape:zoom="0.83007813"
     inkscape:cx="152.54727"
     inkscape:cy="366.97722"
     inkscape:window-x="-8"
     inkscape:window-y="-8"
     inkscape:window-maximized="1"
     inkscape:current-layer="svg4" />
  <path
     fill="currentColor"
     d="M572.52 241.4C518.29 135.59 410.93 64 288 64S57.68 135.64 3.48 241.41a32.35 32.35 0 0 0 0 29.19C57.71 376.41 165.07 448 288 448s230.32-71.64 284.52-177.41a32.35 32.35 0 0 0 0-29.19zM288 400a144 144 0 1 1 144-144 143.93 143.93 0 0 1-144 144zm0-240a95.31 95.31 0 0 0-25.31 3.79 47.85 47.85 0 0 1-66.9 66.9A95.78 95.78 0 1 0 288 160z"
     id="path2" />
  <path
     style="fill:#a0a0a0;stroke:none;stroke-width:0.602353"
     d="m 269.02588,447.15695 c -1.15953,-0.10917 -5.49647,-0.4887 -9.63764,-0.84341 -10.42237,-0.89272 -22.59407,-2.70786 -34.33412,-5.12019 C 133.9956,422.48281 54.297646,362.74531 8.2482899,278.68683 1.2841319,265.97446 0.73203381,264.30803 0.73203381,256 c 0,-8.1109 0.44746489,-9.52739 6.68324229,-21.15641 C 29.39532,193.85331 61.654191,156.27378 99.075054,128.06581 141.31087,96.228304 190.8893,75.290425 241.92,67.739768 c 19.99203,-2.958081 48.09723,-4.103505 66.94478,-2.728327 87.5397,6.387173 165.78683,46.953729 223.15816,115.694439 14.31286,17.14927 29.21602,39.57437 38.82992,58.42824 6.44922,12.64757 6.44088,21.01803 -0.0336,33.76083 -18.36673,36.1485 -48.44035,73.61629 -80.75341,100.60816 -51.73388,43.21455 -113.26457,68.30677 -180.04976,73.42432 -7.31689,0.56068 -35.77999,0.72005 -40.99019,0.22952 z m 30.11765,-47.46422 c 26.18091,-1.26317 55.58206,-12.67484 78.28741,-30.38621 24.4804,-19.09602 43.13454,-48.02778 50.5301,-78.37005 3.19856,-13.12293 3.97383,-19.93884 3.97383,-34.93647 0,-9.97798 -0.28205,-15.38014 -1.06931,-20.48 -4.91932,-31.86758 -18.77232,-59.4245 -41.03596,-81.63036 -29.4798,-29.40326 -69.20476,-44.33798 -111.11214,-41.77294 -47.21056,2.88964 -90.53693,29.32826 -114.60071,69.93165 -9.86989,16.65371 -15.93708,33.74448 -18.98231,53.47165 -1.49831,9.70609 -1.49315,31.31222 0.01,40.96 3.02364,19.40969 8.84369,36.10452 18.13975,52.03393 21.68444,37.15777 58.00041,62.32134 100.62192,69.72163 7.14086,1.23985 20.94215,2.25665 26.20235,1.93043 1.49082,-0.0925 5.55671,-0.30542 9.0353,-0.47326 z"
     id="path859" />
  <path
     style="fill:#a0a0a0;stroke:none;stroke-width:0.602353"
     d="m 275.95294,350.52934 c -34.51467,-4.65343 -64.86658,-28.73883 -76.99531,-61.09875 -6.2525,-16.6819 -7.79271,-35.40952 -4.29961,-52.27963 1.29611,-6.25965 1.20703,-6.12443 3.13714,-4.7618 3.11789,2.20118 9.12548,4.92429 13.82698,6.26747 6.73215,1.9233 18.3589,1.91317 25.13677,-0.0219 17.38378,-4.96308 30.78205,-19.04309 34.41039,-36.16128 1.01504,-4.78893 1.12186,-14.74605 0.21132,-19.69928 -0.83985,-4.56866 -3.63845,-11.84954 -5.96453,-15.51738 -0.99626,-1.57093 -1.81138,-2.96962 -1.81138,-3.10819 0,-0.39931 4.05842,-1.4289 9.93882,-2.52141 7.59502,-1.41106 22.76394,-1.39154 30.72,0.0395 40.32727,7.25375 71.18735,38.37559 78.06817,78.73036 1.81865,10.66605 1.43364,25.42336 -0.93233,35.73554 -8.64139,37.6639 -37.15336,65.55695 -74.93651,73.30983 -6.75355,1.38579 -23.79124,1.99277 -30.50992,1.08692 z"
     id="path861" />
  <path
     style="fill:#ff3c1d;stroke:none;stroke-width:0.602353;fill-opacity:1"
     d="M 259.08706,445.9907 C 200.2072,439.88561 147.39714,419.379 100.36706,384.35832 62.178256,355.92126 28.951275,317.06526 6.4127199,274.48707 2.2487904,266.62088 0.97882353,262.30023 0.97882353,256 c 0,-6.30023 1.26996687,-10.62088 5.43389637,-18.48707 C 28.691763,195.425 62.440821,155.95315 100.36706,127.62687 137.59211,99.824287 183.08059,79.359223 226.65847,70.808927 c 17.7534,-3.483349 30.47657,-4.910262 50.99483,-5.719114 69.40874,-2.736166 139.56051,19.098655 195.95717,60.991897 39.51145,29.35038 72.42819,67.3921 95.21593,110.04064 8.49679,15.90223 8.50069,23.98085 0.0192,39.7553 -10.81167,20.10829 -24.01647,39.43932 -39.50016,57.82588 -8.44129,10.02386 -30.48096,32.01792 -39.85839,39.77592 -50.34329,41.64928 -108.72573,66.15737 -172.8091,72.54273 -11.75497,1.17128 -46.17242,1.15246 -57.5909,-0.0315 z m 49.9891,-47.00606 c 32.14094,-4.45064 65.46834,-22.30064 86.4306,-46.29184 16.18931,-18.52858 26.8391,-38.53227 32.55785,-61.15398 2.04465,-8.08807 3.72025,-18.02024 3.55286,-21.05966 -0.0646,-1.17201 0.0905,-2.62366 0.34447,-3.22589 0.254,-0.60223 0.31579,-7.3787 0.13729,-15.05883 -0.35902,-15.44683 -1.18462,-21.27647 -4.96331,-35.0462 -9.4467,-34.42425 -32.21304,-64.8267 -62.93827,-84.04855 -16.22908,-10.15299 -42.74689,-19.49316 -56.83974,-20.02025 -2.0332,-0.0761 -3.83807,-0.32507 -4.01081,-0.55339 -0.6398,-0.84563 -18.44663,-1.22233 -26.18945,-0.55403 -20.53375,1.7723 -35.6039,5.93908 -53.60941,14.82257 -40.2369,19.85191 -68.43611,56.74806 -77.34271,101.196 -3.35454,16.74068 -3.35454,39.27814 0,56.01882 11.4783,57.28189 55.29209,101.46599 112.58606,113.53759 3.47545,0.73226 7.94535,1.42087 9.93312,1.53024 1.98776,0.10937 4.0207,0.34636 4.51764,0.52663 3.14814,1.14207 25.96132,0.74784 35.83381,-0.61923 z"
     id="path863" />
  <path
     style="fill:#ff3c1d;fill-opacity:1;stroke-width:0.602353"
     d="m 269.92941,349.14308 c -25.30708,-5.44765 -46.8001,-20.04286 -61.22631,-41.5768 -6.65637,-9.93595 -11.3142,-21.44613 -13.90646,-34.36497 -2.26018,-11.26383 -1.7311,-30.66065 1.09631,-40.19189 0.2547,-0.85861 1.01699,-0.62477 5.24254,1.60822 8.43091,4.4553 12.52738,5.42001 23.0151,5.42001 7.76554,0 9.67017,-0.19713 13.55294,-1.40271 15.22127,-4.72613 27.28843,-16.30364 32.3473,-31.03472 1.6043,-4.6716 1.68505,-5.43166 1.67337,-15.75081 -0.0122,-10.73797 -0.0308,-10.89094 -1.9438,-15.88911 -1.06234,-2.77571 -2.76871,-6.53017 -3.79194,-8.34323 -1.02323,-1.81307 -1.73669,-3.42021 -1.58548,-3.57142 0.15122,-0.15122 2.94735,-0.85498 6.21363,-1.56392 4.92861,-1.06974 7.98769,-1.29284 17.98574,-1.31171 10.42114,-0.0197 12.88796,0.16437 18.27763,1.36357 34.15331,7.59908 60.71569,31.22331 71.47554,63.56938 3.73561,11.22993 4.21875,14.76321 4.17043,30.49938 -0.0425,13.82123 -0.0872,14.32057 -1.89743,21.15832 -8.07327,30.49553 -27.54206,53.59407 -54.98146,65.2322 -13.27582,5.6308 -20.05635,6.98231 -36.74353,7.32381 -11.28428,0.23093 -12.91914,0.12981 -18.97412,-1.1736 z"
     id="path865" />
  <path
     style="fill:#ff3c1d;fill-opacity:1;stroke-width:0.602353"
     d=""
     id="path867" />
  <path
     style="fill:#ff3c1d;fill-opacity:1;stroke-width:1.20471;stroke:none"
     d="m 263.38021,445.79463 c -1.98776,-0.27049 -8.49318,-1.08687 -14.45647,-1.8142 C 177.55184,435.27537 106.00863,397.97254 56.608219,343.7066 36.686354,321.82258 18.137877,295.6932 7.3803643,274.35893 -1.2771793,257.18932 -0.51996819,250.7006 12.805966,227.86572 62.813949,142.17368 143.711,85.42712 238.76677,69.361826 c 19.2821,-3.258852 58.55905,-4.478427 78.86395,-2.448778 94.7501,9.471094 180.83305,62.043372 234.78785,143.388832 5.03084,7.58479 11.96986,19.24032 15.42004,25.90117 5.51428,10.64578 6.27805,12.99863 6.31438,19.45204 0.0359,6.37669 -0.70698,8.84879 -5.65326,18.81259 -6.30225,12.69525 -21.74999,36.4102 -32.79424,50.34484 -10.48549,13.22965 -38.06704,41.00825 -51.39736,51.76457 -43.87414,35.40232 -94.57602,57.68272 -152.32929,66.9395 -11.35405,1.81984 -60.07531,3.43778 -68.59863,2.27804 z m 59.72181,-49.06946 c 52.82238,-13.73013 91.7417,-52.56474 105.49678,-105.26713 4.12581,-15.80794 5.2195,-42.75061 2.39374,-58.96899 -8.10243,-46.50385 -36.75945,-85.6321 -77.44741,-105.74652 -22.00952,-10.8806 -41.06585,-15.16295 -67.47462,-15.16295 -64.99809,0 -121.28766,43.88068 -138.62999,108.06939 -2.95907,10.9523 -3.18804,13.57077 -3.19134,36.49531 -0.004,23.21802 0.19465,25.41767 3.3072,36.74353 3.83197,13.94368 12.58007,32.98946 20.88534,45.47025 7.50758,11.28203 24.97762,28.76513 36.83124,36.85876 17.18761,11.73568 40.7358,21.16679 60.51666,24.23707 3.97553,0.61706 15.90212,0.93007 26.50353,0.69557 15.67639,-0.34676 21.42874,-0.98611 30.80887,-3.42429 z"
     id="path871" />
  <path
     style="fill:#ff3c1d;fill-opacity:1;stroke:none;stroke-width:1.20471"
     d="m 269.40374,348.41639 c -33.90048,-7.81078 -61.38901,-33.42675 -71.8691,-66.97328 -2.37484,-7.60181 -2.82266,-11.61557 -2.82266,-25.29883 0,-8.94494 0.4091,-17.72321 0.90911,-19.50726 l 0.90911,-3.24374 6.92148,3.24374 c 6.25748,2.93255 8.25053,3.24373 20.77559,3.24373 13.35473,0 14.13096,-0.1445 21.53439,-4.00879 9.77969,-5.1046 18.02547,-13.35038 22.52101,-22.52101 3.282,-6.69507 3.53048,-8.17704 3.53048,-21.05608 0,-12.51144 -0.31311,-14.52217 -3.23076,-20.74724 l -3.23075,-6.89313 4.43546,-1.23192 c 2.43951,-0.67755 10.95177,-1.23494 18.91615,-1.23864 17.55847,-0.008 27.39485,2.38837 43.29862,10.54918 14.85376,7.62201 31.54791,24.05706 38.83748,38.23469 8.05785,15.6719 10.15405,23.38256 10.88284,40.03137 0.73796,16.85837 -0.55693,25.48703 -5.80236,38.66462 -11.02305,27.69225 -32.85687,47.77669 -61.56541,56.63266 -10.76321,3.32022 -34.81749,4.45465 -44.95068,2.11993 z"
     id="path873" />
  <path
     style="fill:#d10012;fill-opacity:1;stroke:none;stroke-width:1.20471"
     d="M 263.38021,445.71483 C 223.79406,441.20237 196.80628,434.43038 165.44672,421.14057 103.31596,394.81032 47.321135,344.55731 12.472364,283.85252 -0.55068492,261.16703 -1.2418861,254.59889 7.5513874,237.09092 30.244746,191.907 76.08325,142.53254 122.42962,113.35105 c 26.17153,-16.478625 62.17142,-31.694947 92.71305,-39.187669 26.79308,-6.573097 37.90278,-7.73837 73.53636,-7.713074 35.82192,0.02543 49.48645,1.616736 77.27147,8.998673 41.56807,11.043828 83.96942,32.26403 116.68618,58.39682 34.91839,27.89137 67.41481,67.17248 86.28875,104.30432 4.36586,8.58923 5.17405,11.29962 5.21749,17.49764 0.0446,6.36718 -0.69164,8.83182 -5.58476,18.69488 -7.33917,14.79357 -24.71552,40.85345 -36.8657,55.2887 -14.02568,16.66346 -41.06687,42.62685 -56.03812,53.80456 -16.97596,12.67445 -40.69269,26.75686 -59.04008,35.05656 -29.777,13.47003 -67.54339,23.66933 -98.93034,26.71738 -12.07249,1.17238 -45.70516,1.48515 -54.30371,0.50499 z m 59.63294,-49.01746 c 32.09832,-8.36076 59.6056,-26.17858 78.91166,-51.11493 45.35864,-58.58677 40.24968,-140.35905 -12.0233,-192.44051 -16.70631,-16.6451 -35.44763,-27.9357 -58.72354,-35.37763 -23.06354,-7.37403 -56.40872,-8.21615 -79.84482,-2.01645 -21.7069,5.74226 -45.07041,18.45061 -61.39253,33.39386 -20.62275,18.88056 -34.97804,42.87871 -42.38811,70.8614 -3.75416,14.17687 -5.10984,40.69079 -2.92588,57.22353 1.69821,12.85565 7.71921,31.61853 14.36231,44.75641 17.75682,35.11721 50.85037,62.42365 88.79733,73.26927 16.04019,4.58445 23.27958,5.37809 44.50688,4.87915 15.58608,-0.36636 21.46578,-1.02362 30.72,-3.4341 z"
     id="path875" />
  <path
     style="fill:#d10012;fill-opacity:1;stroke:none;stroke-width:1.20471"
     d="m 269.40374,348.41572 c -19.29262,-4.45887 -32.77537,-12.12815 -47.62593,-27.09068 -12.65599,-12.75141 -19.0573,-23.28209 -24.24317,-39.88193 -2.37484,-7.60181 -2.82266,-11.61557 -2.82266,-25.29883 0,-8.94494 0.40914,-17.72339 0.90921,-19.50766 l 0.90921,-3.24413 6.92138,3.22752 c 6.23473,2.90733 8.29579,3.22917 20.77549,3.24413 13.54814,0.0163 14.02499,-0.076 21.59078,-4.17699 9.6676,-5.24025 17.85407,-13.45911 22.45252,-22.54134 3.30932,-6.53612 3.54258,-7.90903 3.54258,-20.85094 0,-12.51144 -0.31311,-14.52217 -3.23076,-20.74724 l -3.23075,-6.89313 4.43546,-1.23192 c 2.43951,-0.67755 10.95177,-1.23494 18.91615,-1.23864 17.55847,-0.008 27.39485,2.38837 43.29862,10.54918 14.85376,7.62201 31.54791,24.05706 38.83748,38.23469 8.26841,16.08142 10.18145,23.2918 10.88126,41.0122 0.53044,13.43153 0.24721,17.18974 -1.9504,25.88009 -4.92602,19.47978 -17.05405,38.72518 -32.10154,50.94045 -7.86838,6.3874 -28.10875,16.70476 -36.74137,18.7286 -9.52336,2.23267 -33.4856,2.74429 -41.52356,0.88657 z"
     id="path877" />
</svg>
